<svg xmlns="http://www.w3.org/2000/svg" xmlns:xlink="http://www.w3.org/1999/xlink" xmlns:svg="http://www.w3.org/2000/svg" xmlns:dc="http://purl.org/dc/elements/1.1/" xmlns:cc="http://web.resource.org/cc/" xmlns:rdf="http://www.w3.org/1999/02/22-rdf-syntax-ns#" width="512" height="512">
<path style="fill:#ffffff; stroke:none;" d="M0 0L0 241L1 241C1.00316 212.35 9.94216 183.098 21.1505 157C92.3562 -8.80188 330.948 -45.9976 449.282 90C465.937 109.141 480.407 130.602 490.421 154C501.757 180.487 510.997 209.913 511 239L512 239L512 0L0 0z"/>
<path style="fill:#bf9101; stroke:none;" d="M237 7L237 8C344.31 8 444.008 68.5227 481.947 172C521.136 278.888 479.449 400.816 385 463.667C361.939 479.012 332.835 494.249 305 498C310.183 500.023 317.733 497.156 323 495.87C339.114 491.937 355 486.304 370 479.219C436.048 448.022 484.096 389.079 503.576 319C535.247 205.06 476.509 78.6664 369 29.3087C325.545 9.35812 283.749 6.9949 237 7z"/>
<path style="fill:#d9a509; stroke:none;" d="M460 385L459 385C442.819 414.064 417.376 440.018 390 458.656C345.888 488.688 292.724 506.313 239 503.961C89.6957 497.423 -23.0344 354.143 6.19985 208C12.3886 177.062 24.8617 147.256 42.3333 121C63.8447 88.6737 92.1949 61.5418 126 42.2809C165.227 19.9307 208.964 8.92773 254 9C291.548 9.06024 331.119 20.5234 364 38.3087C378.483 46.1424 391.112 56.351 405 65C399.907 54.9711 383.536 47.3246 374 41.8503C341.49 23.187 305.421 11.6543 268 8.91125C130.346 -1.1792 6.13812 105.722 0.0393519 245C-6.29787 389.723 120.386 518.358 267 504.17C326.648 498.398 382.152 474.901 425 432C436.874 420.111 456.034 401.877 460 385z"/>
<path style="fill:#e9c34f; stroke:none;" d="M234 9.42438C175.495 17.1061 123.146 34.9663 79 76.0895C57.4311 96.1814 39.8875 120.667 26.7531 147C-42.6549 286.156 38.3058 458.951 189 496.625C219.149 504.162 250.254 505.761 281 501.718C398.28 486.297 490.784 385.201 495.961 267C501.185 147.7 415.141 37.6324 298 14.1998C277.586 10.1163 254.812 6.69174 234 9.42438z"/>
<path style="fill:#d7a301; stroke:none;" d="M233 43.4244C186.961 49.4693 144.551 62.9919 108.424 93.7137C89.0292 110.208 73.4745 130.887 61.1397 153C13.0868 239.146 32.9118 355.07 108.424 419.286C153.603 457.706 215.29 475.759 274 468.715C306.248 464.845 337.654 453.912 365 436.308C468.021 369.986 494.485 219.566 416.951 123.196C389.682 89.3032 352.445 64.7217 311 51.9753C286.782 44.527 258.322 40.0997 233 43.4244z"/>
<path style="fill:#e9c34f; stroke:none;" d="M240 51.4244C198.513 56.8743 160.363 68.3984 126.59 94.3411C106.479 109.789 89.7858 129.539 76.4252 151C23.0316 236.765 44.468 352.528 122.424 416.28C167.656 453.27 227.515 468.865 285 460.715C313.508 456.673 340.537 445.735 365 430.796C384.527 418.872 401.676 402.925 415.789 385C486.039 295.777 469.749 158.691 377 91.4252C357.379 77.195 335.327 65.9883 312 59.2909C289.481 52.8256 263.446 48.3445 240 51.4244z"/>
<path style="fill:#d9a505; stroke:none;" d="M460 128C468.459 151.238 481.704 171.583 488.116 196C500.46 243.008 497.551 292.221 481.656 338C475.955 354.418 465.861 368.899 460 385C472.028 374.696 478.751 351.693 483.667 337C500.455 286.817 501.791 231.503 485.33 181C480.072 164.866 473.229 139.332 460 128z"/>
<path style="fill:#ffffff; stroke:none;" d="M511 270C510.997 298.65 502.058 327.902 490.85 354C419.644 519.802 181.051 556.997 62.7184 421C46.0633 401.859 31.5928 380.398 21.5787 357C10.2429 330.513 1.00321 301.087 1 272L0 272L0 512L512 512L512 341L512 292L511 270z"/>
</svg>
